name C:\Users\antoi\Documents\MyRepositories\upper-imu-dc\Results\main_tracking\Case_94\kinematics.mot
datacolumns 43
datarows 7
range 3.74000000 3.86000000
endheader 
time	clav_prot	clav_elev	scapula_abduction	scapula_elevation	scapula_upward_rot	scapula_winging	plane_elv	shoulder_elv	axial_rot	TrapeziusScapula_M/activation	TrapeziusScapula_S/activation	TrapeziusScapula_I/activation	TrapeziusClavicle_S/activation	SerratusAnterior_I/activation	SerratusAnterior_M/activation	SerratusAnterior_S/activation	Rhomboideus_S/activation	Rhomboideus_I/activation	LevatorScapulae/activation	Coracobrachialis/activation	DeltoideusClavicle_A/activation	DeltoideusScapula_P/activation	DeltoideusScapula_M/activation	LatissimusDorsi_S/activation	LatissimusDorsi_M/activation	LatissimusDorsi_I/activation	PectoralisMajorClavicle_S/activation	PectoralisMajorThorax_I/activation	PectoralisMajorThorax_M/activation	TeresMajor/activation	Infraspinatus_I/activation	Infraspinatus_S/activation	PectoralisMinor/activation	TeresMinor/activation	Subscapularis_S/activation	Subscapularis_M/activation	Subscapularis_I/activation	Supraspinatus_P/activation	Supraspinatus_A/activation	TRIlong/activation	BIC_long/activation	BIC_brevis/activation	
          3.74000000	        -29.43835734	         -2.97931030	        -21.85681546	         -4.60750477	         17.44947776	          3.37317487	         -5.73201069	         39.03615235	          8.98193085	          0.03144715	          0.06697072	          0.01645024	          0.01483476	          0.01000000	          0.01000000	          0.01000000	          0.01716729	          0.02633145	          0.01754398	          0.01000000	          0.01000000	          0.06377837	          0.08621799	          0.01224923	          0.01060925	          0.01000000	          0.01000000	          0.01000000	          0.01000000	          0.01849366	          0.02809876	          0.03467687	          0.01000000	          0.01515558	          0.01000000	          0.01000000	          0.01000000	          0.01008300	          0.01000000	          0.04233397	          0.01000000	          0.01000000	
          3.76000000	        -29.73978950	         -2.89708744	        -22.16657649	         -4.65112446	         17.79430743	          3.20474256	         -5.17530108	         39.68680609	          8.52698969	          0.03090766	          0.06972182	          0.01629319	          0.01599038	          0.01000000	          0.01000000	          0.01000000	          0.01624351	          0.02196444	          0.01619054	          0.01000000	          0.01000000	          0.06241376	          0.08807475	          0.01097727	          0.01000000	          0.01000000	          0.01000000	          0.01000000	          0.01000000	          0.01693862	          0.02885088	          0.03526821	          0.01000000	          0.01528357	          0.01000000	          0.01000000	          0.01000000	          0.01021992	          0.01000000	          0.03873142	          0.01000000	          0.01000000	
          3.78000000	        -30.03672747	         -2.82180387	        -22.46113944	         -4.70073224	         18.14500054	          3.03539590	         -4.63918334	         40.34510968	          8.07244324	          0.02994254	          0.07268756	          0.01584189	          0.01751894	          0.01047353	          0.01000000	          0.01000000	          0.01516356	          0.01751806	          0.01477283	          0.01000000	          0.01000000	          0.06090399	          0.09000722	          0.01000000	          0.01000000	          0.01000000	          0.01000000	          0.01000000	          0.01000000	          0.01546150	          0.02975230	          0.03596341	          0.01000000	          0.01544116	          0.01000000	          0.01000000	          0.01000000	          0.01036962	          0.01000000	          0.03505316	          0.01000000	          0.01000000	
          3.80000000	        -30.32973604	         -2.75359929	        -22.73645902	         -4.75828145	         18.50934531	          2.86333426	         -4.12804939	         41.01091605	          7.61482237	          0.02987486	          0.07508895	          0.01617499	          0.01826416	          0.01254915	          0.01066429	          0.01000000	          0.01458606	          0.01509327	          0.01386624	          0.01000000	          0.01000000	          0.05933703	          0.09194760	          0.01000000	          0.01000000	          0.01000000	          0.01000000	          0.01000000	          0.01000000	          0.01404551	          0.03078795	          0.03675905	          0.01000000	          0.01562638	          0.01000000	          0.01000000	          0.01000000	          0.01054205	          0.01000000	          0.03142367	          0.01000000	          0.01000000	
          3.82000000	        -30.61873253	         -2.69165067	        -22.98766452	         -4.82487620	         18.89502854	          2.68658934	         -3.64609573	         41.68357203	          7.15152633	          0.03017865	          0.07712523	          0.01697288	          0.01869463	          0.01479537	          0.01161201	          0.01000000	          0.01413910	          0.01339336	          0.01305837	          0.01000000	          0.01000000	          0.05785235	          0.09367535	          0.01000000	          0.01000000	          0.01000000	          0.01000000	          0.01000000	          0.01000000	          0.01282079	          0.03189807	          0.03758781	          0.01000000	          0.01583554	          0.01000000	          0.01000000	          0.01000000	          0.01072351	          0.01000000	          0.02812076	          0.01000000	          0.01000000	
          3.84000000	        -30.90350925	         -2.63490000	        -23.21119139	         -4.90080608	         19.30732448	          2.50376304	         -3.19522495	         42.36246227	          6.68161811	          0.03060087	          0.07893173	          0.01796752	          0.01900229	          0.01724917	          0.01256288	          0.01000000	          0.01372613	          0.01208500	          0.01232012	          0.01000000	          0.01000000	          0.05642897	          0.09526171	          0.01000000	          0.01000000	          0.01000000	          0.01000000	          0.01000000	          0.01000000	          0.01179390	          0.03305954	          0.03844298	          0.01000000	          0.01606088	          0.01000000	          0.01000000	          0.01000000	          0.01091032	          0.01000000	          0.02511447	          0.01000000	          0.01000000	
          3.86000000	        -31.18359391	         -2.58221025	        -23.40487908	         -4.98554489	         19.74856528	          2.31424063	         -2.77507528	         43.04733296	          6.20772347	          0.03108777	          0.08049444	          0.01910403	          0.01921785	          0.01980329	          0.01347610	          0.01000000	          0.01332502	          0.01107682	          0.01165079	          0.01000000	          0.01000000	          0.05507168	          0.09668412	          0.01000000	          0.01000000	          0.01000000	          0.01000000	          0.01000000	          0.01000000	          0.01095988	          0.03421441	          0.03927947	          0.01000000	          0.01628810	          0.01000000	          0.01000000	          0.01000000	          0.01110206	          0.01000000	          0.02240705	          0.01000000	          0.01000000	
